<?xml version="1.0" encoding="utf-8" standalone="no"?>
<!DOCTYPE svg PUBLIC "-//W3C//DTD SVG 1.1//EN"
  "http://www.w3.org/Graphics/SVG/1.1/DTD/svg11.dtd">
<svg xmlns:xlink="http://www.w3.org/1999/xlink" width="459.082559pt" height="306.069289pt" viewBox="0 0 459.082559 306.069289" xmlns="http://www.w3.org/2000/svg" version="1.1">
 <metadata>
  <rdf:RDF xmlns:dc="http://purl.org/dc/elements/1.1/" xmlns:cc="http://creativecommons.org/ns#" xmlns:rdf="http://www.w3.org/1999/02/22-rdf-syntax-ns#">
   <cc:Work>
    <dc:type rdf:resource="http://purl.org/dc/dcmitype/StillImage"/>
    <dc:date>2025-05-21T11:27:39.756776</dc:date>
    <dc:format>image/svg+xml</dc:format>
    <dc:creator>
     <cc:Agent>
      <dc:title>Matplotlib v3.10.1, https://matplotlib.org/</dc:title>
     </cc:Agent>
    </dc:creator>
   </cc:Work>
  </rdf:RDF>
 </metadata>
 <defs>
  <style type="text/css">*{stroke-linejoin: round; stroke-linecap: butt}</style>
 </defs>
 <g id="figure_1">
  <g id="patch_1">
   <path d="M 0 306.069289 
L 459.082559 306.069289 
L 459.082559 0 
L 0 0 
z
" style="fill: #ffffff"/>
  </g>
  <g id="axes_1">
   <g id="patch_2">
    <path d="M 52.571048 146.88 
L 217.497156 146.88 
L 217.497156 36 
L 52.571048 36 
z
" style="fill: #ffffff"/>
   </g>
   <g id="line2d_1">
    <path d="M 55.539717 119.340015 
L 56.199422 118.206156 
L 56.859126 117.564027 
L 57.518831 115.537572 
L 58.178535 116.042872 
L 58.83824 113.857926 
L 59.497944 114.582746 
L 60.157649 114.422958 
L 60.817353 114.378691 
L 61.477057 114.58821 
L 62.136762 115.069177 
L 62.796466 116.192061 
L 63.456171 116.707033 
L 64.115875 118.637132 
L 64.77558 118.896698 
L 65.435284 120.327759 
L 67.414397 111.452703 
L 68.074102 109.68743 
L 68.733806 108.783218 
L 69.393511 106.848189 
L 70.053215 105.429815 
L 70.712919 102.235049 
L 71.372624 100.741202 
L 72.032328 101.36004 
L 72.692033 103.963185 
L 74.011442 109.917698 
L 74.671146 111.396191 
L 75.33085 111.374264 
L 75.990555 112.661469 
L 76.650259 112.877892 
L 77.309964 115.64141 
L 77.969668 115.592116 
L 78.629373 114.165665 
L 79.289077 113.254859 
L 79.948782 111.842737 
L 80.608486 110.729582 
L 81.26819 111.007893 
L 81.927895 112.410583 
L 82.587599 113.297358 
L 83.247304 114.837307 
L 83.907008 115.516447 
L 84.566713 117.161303 
L 85.226417 118.028275 
L 86.545826 120.442422 
L 87.20553 120.336391 
L 87.865235 119.222582 
L 88.524939 118.882662 
L 89.184644 117.233178 
L 89.844348 116.918934 
L 90.504052 116.844676 
L 91.163757 116.934912 
L 92.483166 117.5729 
L 93.14287 117.59811 
L 93.802575 118.061415 
L 94.462279 118.804842 
L 95.121983 119.224022 
L 95.781688 120.71975 
L 96.441392 117.224213 
L 101.059323 76.710044 
L 102.378732 64.279597 
L 103.038437 61.948155 
L 105.01755 61.213162 
L 105.677254 61.189381 
L 106.336959 61.021195 
L 107.656368 61.040313 
L 109.635481 61.010472 
L 112.934003 61.19503 
L 114.253412 61.417195 
L 120.190752 61.412863 
L 121.510161 61.330245 
L 122.82957 61.27712 
L 136.023658 61.482474 
L 137.343067 61.601573 
L 141.960998 61.46825 
L 143.940112 61.169493 
L 147.238634 61.170487 
L 150.537156 61.119134 
L 151.856565 61.014704 
L 153.175974 61.075447 
L 154.495383 60.98567 
L 166.370062 61.068537 
L 169.668584 60.890354 
L 170.987993 60.917517 
L 172.307402 60.892981 
L 179.564151 61.065051 
L 182.202969 61.235716 
L 183.522378 61.219488 
L 191.438831 61.18241 
L 192.75824 61.13106 
L 200.674693 61.061153 
L 208.591146 61.115562 
L 214.528486 61.099835 
L 217.827008 61.172426 
L 217.827008 61.172426 
" clip-path="url(#p1f32e20301)" style="fill: none; stroke: #ffa955; stroke-opacity: 0.9; stroke-width: 2; stroke-linecap: square"/>
   </g>
   <g id="matplotlib.axis_1">
    <g id="xtick_1">
     <g id="line2d_2">
      <defs>
       <path id="m7e83566b54" d="M 0 0 
L 0 3.5 
" style="stroke: #000000; stroke-width: 0.8"/>
      </defs>
      <g>
       <use xlink:href="#m7e83566b54" x="52.571048" y="146.88" style="stroke: #000000; stroke-width: 0.8"/>
      </g>
     </g>
     <g id="text_1">
      <!-- $\mathdefault{0}$ -->
      <g transform="translate(48.669054 164.949588) scale(0.16 -0.16)">
       <defs>
        <path id="CMR17-30" d="M 2688 2025 
C 2688 2416 2682 3080 2413 3591 
C 2176 4039 1798 4198 1466 4198 
C 1158 4198 768 4058 525 3597 
C 269 3118 243 2524 243 2025 
C 243 1661 250 1106 448 619 
C 723 -39 1216 -128 1466 -128 
C 1760 -128 2208 -7 2470 600 
C 2662 1042 2688 1559 2688 2025 
z
M 1466 -26 
C 1056 -26 813 325 723 812 
C 653 1188 653 1738 653 2096 
C 653 2588 653 2997 736 3387 
C 858 3929 1216 4096 1466 4096 
C 1728 4096 2067 3923 2189 3400 
C 2272 3036 2278 2607 2278 2096 
C 2278 1680 2278 1169 2202 792 
C 2067 95 1690 -26 1466 -26 
z
" transform="scale(0.015625)"/>
       </defs>
       <use xlink:href="#CMR17-30" transform="scale(0.996264)"/>
      </g>
     </g>
    </g>
    <g id="xtick_2">
     <g id="line2d_3">
      <g>
       <use xlink:href="#m7e83566b54" x="118.541491" y="146.88" style="stroke: #000000; stroke-width: 0.8"/>
      </g>
     </g>
     <g id="text_2">
      <!-- $\mathdefault{1}$ -->
      <g transform="translate(114.639497 164.949588) scale(0.16 -0.16)">
       <defs>
        <path id="CMR17-31" d="M 1702 4058 
C 1702 4192 1696 4192 1606 4192 
C 1357 3916 979 3827 621 3827 
C 602 3827 570 3827 563 3808 
C 557 3795 557 3782 557 3648 
C 755 3648 1088 3686 1344 3839 
L 1344 461 
C 1344 236 1331 160 781 160 
L 589 160 
L 589 0 
C 896 0 1216 0 1523 0 
C 1830 0 2150 0 2458 0 
L 2458 160 
L 2266 160 
C 1715 160 1702 230 1702 458 
L 1702 4058 
z
" transform="scale(0.015625)"/>
       </defs>
       <use xlink:href="#CMR17-31" transform="scale(0.996264)"/>
      </g>
     </g>
    </g>
    <g id="xtick_3">
     <g id="line2d_4">
      <g>
       <use xlink:href="#m7e83566b54" x="184.511934" y="146.88" style="stroke: #000000; stroke-width: 0.8"/>
      </g>
     </g>
     <g id="text_3">
      <!-- $\mathdefault{2}$ -->
      <g transform="translate(180.609941 164.949588) scale(0.16 -0.16)">
       <defs>
        <path id="CMR17-32" d="M 2669 989 
L 2554 989 
C 2490 536 2438 459 2413 420 
C 2381 369 1920 369 1830 369 
L 602 369 
C 832 619 1280 1072 1824 1597 
C 2214 1967 2669 2402 2669 3035 
C 2669 3790 2067 4224 1395 4224 
C 691 4224 262 3604 262 3030 
C 262 2780 448 2748 525 2748 
C 589 2748 781 2787 781 3010 
C 781 3207 614 3264 525 3264 
C 486 3264 448 3258 422 3245 
C 544 3790 915 4058 1306 4058 
C 1862 4058 2227 3617 2227 3035 
C 2227 2479 1901 2000 1536 1584 
L 262 146 
L 262 0 
L 2515 0 
L 2669 989 
z
" transform="scale(0.015625)"/>
       </defs>
       <use xlink:href="#CMR17-32" transform="scale(0.996264)"/>
      </g>
     </g>
    </g>
    <g id="text_4">
     <!-- time_ns -->
     <g transform="translate(109.636461 183.118653) scale(0.16 -0.16)">
      <defs>
       <path id="CMR17-74" d="M 966 2560 
L 1862 2560 
L 1862 2725 
L 966 2725 
L 966 3904 
L 851 3904 
C 838 3245 614 2668 70 2668 
L 70 2560 
L 627 2560 
L 627 771 
C 627 650 627 -64 1370 -64 
C 1747 -64 1965 306 1965 777 
L 1965 1140 
L 1850 1140 
L 1850 783 
C 1850 344 1677 51 1408 51 
C 1222 51 966 178 966 758 
L 966 2560 
z
" transform="scale(0.015625)"/>
       <path id="CMR17-69" d="M 992 3909 
C 992 4049 877 4170 730 4170 
C 589 4170 467 4056 467 3909 
C 467 3769 582 3648 730 3648 
C 870 3648 992 3763 992 3909 
z
M 243 2706 
L 243 2541 
C 602 2541 653 2502 653 2197 
L 653 427 
C 653 184 627 153 218 153 
L 218 -13 
C 371 0 646 0 806 0 
C 960 0 1222 0 1370 -13 
L 1370 153 
C 992 153 979 191 979 420 
L 979 2776 
L 243 2706 
z
" transform="scale(0.015625)"/>
       <path id="CMR17-6d" d="M 4326 1933 
C 4326 2252 4269 2790 3507 2790 
C 3072 2790 2771 2496 2656 2151 
L 2650 2151 
C 2573 2676 2195 2790 1837 2790 
C 1331 2790 1069 2400 973 2144 
L 966 2144 
L 966 2790 
L 211 2720 
L 211 2554 
C 589 2554 646 2515 646 2208 
L 646 428 
C 646 184 621 153 211 153 
L 211 -13 
C 365 0 646 0 813 0 
C 979 0 1267 0 1421 -13 
L 1421 153 
C 1011 153 986 178 986 428 
L 986 1658 
C 986 2247 1344 2688 1792 2688 
C 2266 2688 2317 2266 2317 1958 
L 2317 428 
C 2317 184 2291 153 1882 153 
L 1882 -13 
C 2035 0 2317 0 2483 0 
C 2650 0 2938 0 3091 -13 
L 3091 153 
C 2682 153 2656 178 2656 428 
L 2656 1658 
C 2656 2247 3014 2688 3462 2688 
C 3936 2688 3987 2266 3987 1958 
L 3987 428 
C 3987 184 3962 153 3552 153 
L 3552 -13 
C 3706 0 3987 0 4154 0 
C 4320 0 4608 0 4762 -13 
L 4762 153 
C 4352 153 4326 178 4326 428 
L 4326 1933 
z
" transform="scale(0.015625)"/>
       <path id="CMR17-65" d="M 2438 1472 
C 2464 1498 2464 1511 2464 1576 
C 2464 2238 2118 2816 1389 2816 
C 710 2816 173 2169 173 1383 
C 173 551 781 -64 1459 -64 
C 2176 -64 2458 607 2458 740 
C 2458 784 2419 784 2406 784 
C 2362 784 2355 771 2330 696 
C 2189 265 1837 51 1504 51 
C 1229 51 954 203 781 480 
C 582 803 582 1176 582 1472 
L 2438 1472 
z
M 589 1568 
C 634 2505 1126 2714 1382 2714 
C 1818 2714 2112 2297 2118 1568 
L 589 1568 
z
" transform="scale(0.015625)"/>
       <path id="CMR17-6e" d="M 2656 1933 
C 2656 2259 2592 2790 1837 2790 
C 1331 2790 1069 2400 973 2144 
L 966 2144 
L 966 2790 
L 211 2720 
L 211 2554 
C 589 2554 646 2515 646 2208 
L 646 428 
C 646 184 621 153 211 153 
L 211 -13 
C 365 0 646 0 813 0 
C 979 0 1267 0 1421 -13 
L 1421 153 
C 1011 153 986 178 986 428 
L 986 1658 
C 986 2247 1344 2688 1792 2688 
C 2266 2688 2317 2266 2317 1958 
L 2317 428 
C 2317 184 2291 153 1882 153 
L 1882 -13 
C 2035 0 2317 0 2483 0 
C 2650 0 2938 0 3091 -13 
L 3091 153 
C 2682 153 2656 178 2656 428 
L 2656 1933 
z
" transform="scale(0.015625)"/>
       <path id="CMR17-73" d="M 1978 2697 
C 1978 2813 1971 2819 1933 2819 
C 1907 2819 1901 2813 1824 2717 
C 1805 2691 1747 2626 1728 2601 
C 1523 2819 1235 2819 1126 2819 
C 416 2819 160 2447 160 2076 
C 160 1498 813 1365 998 1325 
C 1402 1243 1542 1217 1677 1101 
C 1760 1025 1901 884 1901 654 
C 1901 384 1747 38 1158 38 
C 602 38 403 460 288 1021 
C 269 1110 269 1117 218 1117 
C 166 1117 160 1110 160 983 
L 160 63 
C 160 -51 166 -58 205 -58 
C 237 -58 243 -51 275 0 
C 314 57 410 211 448 276 
C 576 103 800 -64 1158 -64 
C 1792 -64 2131 283 2131 784 
C 2131 1112 1958 1285 1875 1362 
C 1683 1561 1459 1606 1190 1657 
C 838 1735 390 1825 390 2217 
C 390 2383 480 2737 1126 2737 
C 1811 2737 1850 2094 1862 1888 
C 1869 1856 1901 1849 1920 1849 
C 1978 1849 1978 1869 1978 1978 
L 1978 2697 
z
" transform="scale(0.015625)"/>
      </defs>
      <use xlink:href="#CMR17-74" transform="scale(0.996264)"/>
      <use xlink:href="#CMR17-69" transform="translate(35.280768 0) scale(0.996264)"/>
      <use xlink:href="#CMR17-6d" transform="translate(60.151826 0) scale(0.996264)"/>
      <use xlink:href="#CMR17-65" transform="translate(137.071416 0) scale(0.996264)"/>
      <use xlink:href="#CMR17-6e" transform="translate(210.454296 0) scale(0.996264)"/>
      <use xlink:href="#CMR17-73" transform="translate(261.349666 0) scale(0.996264)"/>
      <path d="M 183.039706 0 
L 210.454296 0 
L 210.454296 0.3985 
L 183.039706 0.3985 
L 183.039706 0 
z
"/>
     </g>
    </g>
   </g>
   <g id="matplotlib.axis_2">
    <g id="ytick_1">
     <g id="line2d_5">
      <defs>
       <path id="me64626f3e6" d="M 0 0 
L -3.5 0 
" style="stroke: #000000; stroke-width: 0.8"/>
      </defs>
      <g>
       <use xlink:href="#me64626f3e6" x="52.571048" y="122.24" style="stroke: #000000; stroke-width: 0.8"/>
      </g>
     </g>
     <g id="text_5">
      <!-- $\mathdefault{−1}$ -->
      <g transform="translate(25.369064 127.774794) scale(0.16 -0.16)">
       <defs>
        <path id="CMSY10-0" d="M 4218 1472 
C 4326 1472 4442 1472 4442 1600 
C 4442 1728 4326 1728 4218 1728 
L 755 1728 
C 646 1728 531 1728 531 1600 
C 531 1472 646 1472 755 1472 
L 4218 1472 
z
" transform="scale(0.015625)"/>
       </defs>
       <use xlink:href="#CMSY10-0" transform="scale(0.996264)"/>
       <use xlink:href="#CMR17-31" transform="translate(77.487468 0) scale(0.996264)"/>
      </g>
     </g>
    </g>
    <g id="ytick_2">
     <g id="line2d_6">
      <g>
       <use xlink:href="#me64626f3e6" x="52.571048" y="91.44" style="stroke: #000000; stroke-width: 0.8"/>
      </g>
     </g>
     <g id="text_6">
      <!-- $\mathdefault{0}$ -->
      <g transform="translate(37.767061 96.974794) scale(0.16 -0.16)">
       <use xlink:href="#CMR17-30" transform="scale(0.996264)"/>
      </g>
     </g>
    </g>
    <g id="ytick_3">
     <g id="line2d_7">
      <g>
       <use xlink:href="#me64626f3e6" x="52.571048" y="60.64" style="stroke: #000000; stroke-width: 0.8"/>
      </g>
     </g>
     <g id="text_7">
      <!-- $\mathdefault{1}$ -->
      <g transform="translate(37.767061 66.174794) scale(0.16 -0.16)">
       <use xlink:href="#CMR17-31" transform="scale(0.996264)"/>
      </g>
     </g>
    </g>
    <g id="text_8">
     <!-- $\Psi_2$ -->
     <g transform="translate(18.269588 100.299302) rotate(-90) scale(0.16 -0.16)">
      <defs>
       <path id="CMR17-9" d="M 2496 3897 
C 2496 4128 2509 4192 2995 4192 
L 3136 4192 
L 3136 4352 
C 2874 4352 2566 4352 2298 4352 
C 2029 4352 1715 4352 1453 4352 
L 1453 4192 
L 1594 4192 
C 2080 4192 2093 4128 2093 3897 
L 2093 933 
C 1178 1118 1165 2294 1165 2626 
C 1158 3233 998 3546 602 3546 
L 435 3546 
C 333 3546 301 3546 301 3495 
C 301 3489 301 3450 333 3450 
C 512 3418 755 3380 762 2523 
C 768 1929 979 952 2093 824 
L 2093 454 
C 2093 224 2080 160 1594 160 
L 1453 160 
L 1453 0 
C 1715 0 2029 0 2298 0 
C 2566 0 2874 0 3136 0 
L 3136 160 
L 2995 160 
C 2509 160 2496 224 2496 454 
L 2496 824 
C 3827 965 3840 2307 3840 2671 
C 3840 2965 3904 3380 4230 3444 
C 4294 3457 4307 3457 4307 3495 
C 4307 3546 4275 3546 4166 3546 
L 4000 3546 
C 3578 3546 3443 3215 3437 2556 
C 3430 1879 3251 1093 2496 933 
L 2496 3897 
z
" transform="scale(0.015625)"/>
      </defs>
      <use xlink:href="#CMR17-9" transform="scale(0.996264)"/>
      <use xlink:href="#CMR17-32" transform="translate(71.714788 -14.943915) scale(0.697382)"/>
     </g>
    </g>
   </g>
   <g id="line2d_8">
    <path d="M 55.539717 122.196034 
L 56.859126 122.201673 
L 57.518831 121.314319 
L 63.456171 121.316967 
L 64.115875 122.204685 
L 79.289077 122.121412 
L 80.608486 114.097214 
L 85.886121 114.115441 
L 87.20553 122.131418 
L 95.781688 122.170387 
L 97.101097 110.517315 
L 102.378732 61.659203 
L 103.038437 61.047086 
L 108.316072 61.278093 
L 110.295185 61.327501 
L 111.614594 61.318382 
L 116.232525 61.084236 
L 124.808683 61.249148 
L 132.065432 61.274974 
L 132.725136 61.203161 
L 134.70425 61.335954 
L 137.343067 61.268618 
L 139.981885 61.270877 
L 141.301294 61.213767 
L 143.280407 61.207481 
L 149.877451 61.307993 
L 151.856565 61.183709 
L 152.516269 61.293766 
L 154.495383 61.214402 
L 160.432722 61.358438 
L 161.752131 61.238764 
L 163.07154 61.19105 
L 176.265629 61.035077 
L 178.244742 61.04613 
L 179.564151 61.107524 
L 184.182082 61.134615 
L 185.501491 60.994754 
L 187.480604 61.087902 
L 190.119422 61.070411 
L 192.098535 61.225481 
L 195.397057 61.160793 
L 197.376171 61.299402 
L 198.69558 61.235219 
L 217.827008 61.090567 
L 217.827008 61.090567 
" clip-path="url(#p1f32e20301)" style="fill: none; stroke-dasharray: 7.4,3.2; stroke-dashoffset: 0; stroke: #2f9294; stroke-opacity: 0.9; stroke-width: 2"/>
   </g>
   <g id="line2d_9">
    <path d="M 215.847895 147.9888 
L 219.146417 145.7712 
" style="fill: none; stroke: #000000; stroke-width: 1.5; stroke-linecap: square"/>
   </g>
   <g id="line2d_10">
    <path d="M 215.847895 37.1088 
L 219.146417 34.8912 
" style="fill: none; stroke: #000000; stroke-width: 1.5; stroke-linecap: square"/>
   </g>
   <g id="patch_3">
    <path d="M 52.571048 146.88 
L 52.571048 36 
" style="fill: none; stroke: #000000; stroke-width: 0.8; stroke-linejoin: miter; stroke-linecap: square"/>
   </g>
   <g id="patch_4">
    <path d="M 52.571048 146.88 
L 217.497156 146.88 
" style="fill: none; stroke: #000000; stroke-width: 0.8; stroke-linejoin: miter; stroke-linecap: square"/>
   </g>
   <g id="patch_5">
    <path d="M 52.571048 36 
L 217.497156 36 
" style="fill: none; stroke: #000000; stroke-width: 0.8; stroke-linejoin: miter; stroke-linecap: square"/>
   </g>
  </g>
  <g id="axes_2">
   <g id="patch_6">
    <path d="M 222.444939 146.88 
L 387.371048 146.88 
L 387.371048 36 
L 222.444939 36 
z
" style="fill: #ffffff"/>
   </g>
   <g id="line2d_11">
    <path d="M 222.20933 61.219349 
L 222.680548 61.128235 
L 223.622983 61.218708 
L 228.806375 61.33591 
L 237.288289 61.022109 
L 238.701941 61.108832 
L 249.539943 61.222011 
L 250.482378 61.121361 
L 253.309682 61.125452 
L 253.7809 61.037767 
L 254.252117 61.130019 
L 255.66577 61.039213 
L 256.608204 61.101882 
L 260.377944 61.247138 
L 262.734031 61.022004 
L 263.676466 60.992846 
L 266.032554 61.148557 
L 266.974988 61.108351 
L 269.802293 61.010526 
L 272.629598 61.092281 
L 273.572033 61.171104 
L 274.985685 61.005258 
L 278.284207 60.991539 
L 280.640295 61.024584 
L 281.582729 61.01077 
L 282.996382 61.027397 
L 284.410034 61.084644 
L 286.294904 61.055914 
L 294.305601 61.047868 
L 299.017775 61.226912 
L 300.902645 61.172774 
L 302.316297 61.176694 
L 303.72995 61.165238 
L 307.028472 61.275356 
L 322.10743 61.254659 
L 326.819605 61.27428 
L 332.002997 61.255026 
L 340.013694 61.265086 
L 363.574566 61.257489 
L 366.401871 61.249755 
L 374.412568 61.253793 
L 379.124742 61.286598 
L 384.779352 61.196332 
L 384.779352 61.196332 
" clip-path="url(#pd15a4dbdc6)" style="fill: none; stroke: #ffa955; stroke-opacity: 0.9; stroke-width: 2; stroke-linecap: square"/>
   </g>
   <g id="matplotlib.axis_3">
    <g id="xtick_4">
     <g id="line2d_12">
      <g>
       <use xlink:href="#m7e83566b54" x="246.005812" y="146.88" style="stroke: #000000; stroke-width: 0.8"/>
      </g>
     </g>
     <g id="text_9">
      <!-- $\mathdefault{24}$ -->
      <g transform="translate(238.201825 164.949588) scale(0.16 -0.16)">
       <defs>
        <path id="CMR17-34" d="M 2150 4122 
C 2150 4256 2144 4256 2029 4256 
L 128 1254 
L 128 1088 
L 1779 1088 
L 1779 457 
C 1779 224 1766 160 1318 160 
L 1197 160 
L 1197 0 
C 1402 0 1747 0 1965 0 
C 2182 0 2528 0 2733 0 
L 2733 160 
L 2611 160 
C 2163 160 2150 224 2150 457 
L 2150 1088 
L 2803 1088 
L 2803 1254 
L 2150 1254 
L 2150 4122 
z
M 1798 3703 
L 1798 1254 
L 256 1254 
L 1798 3703 
z
" transform="scale(0.015625)"/>
       </defs>
       <use xlink:href="#CMR17-32" transform="scale(0.996264)"/>
       <use xlink:href="#CMR17-34" transform="translate(45.690477 0) scale(0.996264)"/>
      </g>
     </g>
    </g>
    <g id="xtick_5">
     <g id="line2d_13">
      <g>
       <use xlink:href="#m7e83566b54" x="340.249302" y="146.88" style="stroke: #000000; stroke-width: 0.8"/>
      </g>
     </g>
     <g id="text_10">
      <!-- $\mathdefault{26}$ -->
      <g transform="translate(332.445315 164.949588) scale(0.16 -0.16)">
       <defs>
        <path id="CMR17-36" d="M 678 2176 
C 678 3690 1395 4032 1811 4032 
C 1946 4032 2272 4009 2400 3776 
C 2298 3776 2106 3776 2106 3553 
C 2106 3381 2246 3323 2336 3323 
C 2394 3323 2566 3348 2566 3560 
C 2566 3954 2246 4179 1805 4179 
C 1043 4179 243 3390 243 1984 
C 243 253 966 -128 1478 -128 
C 2099 -128 2688 427 2688 1283 
C 2688 2081 2170 2662 1517 2662 
C 1126 2662 838 2407 678 1960 
L 678 2176 
z
M 1478 25 
C 691 25 691 1200 691 1436 
C 691 1896 909 2560 1504 2560 
C 1613 2560 1926 2560 2138 2120 
C 2253 1870 2253 1609 2253 1289 
C 2253 944 2253 690 2118 434 
C 1978 171 1773 25 1478 25 
z
" transform="scale(0.015625)"/>
       </defs>
       <use xlink:href="#CMR17-32" transform="scale(0.996264)"/>
       <use xlink:href="#CMR17-36" transform="translate(45.690477 0) scale(0.996264)"/>
      </g>
     </g>
    </g>
    <g id="text_11">
     <!-- time_ns -->
     <g transform="translate(279.510353 183.118653) scale(0.16 -0.16)">
      <use xlink:href="#CMR17-74" transform="scale(0.996264)"/>
      <use xlink:href="#CMR17-69" transform="translate(35.280768 0) scale(0.996264)"/>
      <use xlink:href="#CMR17-6d" transform="translate(60.151826 0) scale(0.996264)"/>
      <use xlink:href="#CMR17-65" transform="translate(137.071416 0) scale(0.996264)"/>
      <use xlink:href="#CMR17-6e" transform="translate(210.454296 0) scale(0.996264)"/>
      <use xlink:href="#CMR17-73" transform="translate(261.349666 0) scale(0.996264)"/>
      <path d="M 183.039706 0 
L 210.454296 0 
L 210.454296 0.3985 
L 183.039706 0.3985 
L 183.039706 0 
z
"/>
     </g>
    </g>
   </g>
   <g id="matplotlib.axis_4">
    <g id="ytick_4">
     <g id="line2d_14">
      <g>
       <use xlink:href="#me64626f3e6" x="222.444939" y="122.24" style="stroke: #000000; stroke-width: 0.8"/>
      </g>
     </g>
    </g>
    <g id="ytick_5">
     <g id="line2d_15">
      <g>
       <use xlink:href="#me64626f3e6" x="222.444939" y="91.44" style="stroke: #000000; stroke-width: 0.8"/>
      </g>
     </g>
    </g>
    <g id="ytick_6">
     <g id="line2d_16">
      <g>
       <use xlink:href="#me64626f3e6" x="222.444939" y="60.64" style="stroke: #000000; stroke-width: 0.8"/>
      </g>
     </g>
    </g>
   </g>
   <g id="line2d_17">
    <path d="M 222.20933 61.466701 
L 224.0942 61.410816 
L 225.036635 61.513369 
L 226.450288 61.542795 
L 231.633679 61.575855 
L 233.518549 61.3393 
L 238.701941 61.380282 
L 241.529246 61.590988 
L 242.942898 61.509513 
L 245.770203 61.528093 
L 246.712638 61.423165 
L 259.906727 61.345021 
L 260.849162 61.239914 
L 262.262814 61.266904 
L 263.676466 61.344823 
L 264.618901 61.397039 
L 265.561336 61.495951 
L 268.859858 61.322274 
L 271.215945 61.364892 
L 271.687163 61.319151 
L 273.100815 61.446308 
L 274.985685 61.452084 
L 278.284207 61.550003 
L 279.226642 61.446237 
L 280.640295 61.446065 
L 283.938817 61.506093 
L 285.352469 61.568607 
L 286.294904 61.46158 
L 286.766121 61.528576 
L 288.179774 61.465389 
L 292.891948 61.400359 
L 293.834383 61.345618 
L 294.305601 61.425316 
L 295.719253 61.336242 
L 297.132905 61.485215 
L 299.017775 61.48259 
L 299.96021 61.425621 
L 304.672385 61.310156 
L 310.798212 61.325122 
L 315.510386 61.406743 
L 317.866473 61.439372 
L 320.222561 61.392395 
L 322.10743 61.338539 
L 332.474214 61.399069 
L 333.887867 61.360723 
L 336.243954 61.339847 
L 340.013694 61.373934 
L 345.668303 61.387136 
L 357.919957 61.36869 
L 362.632131 61.402645 
L 384.779352 61.352874 
L 384.779352 61.352874 
" clip-path="url(#pd15a4dbdc6)" style="fill: none; stroke-dasharray: 7.4,3.2; stroke-dashoffset: 0; stroke: #2f9294; stroke-opacity: 0.9; stroke-width: 2"/>
   </g>
   <g id="line2d_18">
    <path d="M 220.795678 147.9888 
L 224.0942 145.7712 
" style="fill: none; stroke: #000000; stroke-width: 1.5; stroke-linecap: square"/>
   </g>
   <g id="line2d_19">
    <path d="M 220.795678 37.1088 
L 224.0942 34.8912 
" style="fill: none; stroke: #000000; stroke-width: 1.5; stroke-linecap: square"/>
   </g>
   <g id="patch_7">
    <path d="M 387.371048 146.88 
L 387.371048 36 
" style="fill: none; stroke: #000000; stroke-width: 0.8; stroke-linejoin: miter; stroke-linecap: square"/>
   </g>
   <g id="patch_8">
    <path d="M 222.444939 146.88 
L 387.371048 146.88 
" style="fill: none; stroke: #000000; stroke-width: 0.8; stroke-linejoin: miter; stroke-linecap: square"/>
   </g>
   <g id="patch_9">
    <path d="M 222.444939 36 
L 387.371048 36 
" style="fill: none; stroke: #000000; stroke-width: 0.8; stroke-linejoin: miter; stroke-linecap: square"/>
   </g>
   <g id="legend_1">
    <g id="line2d_20">
     <path d="M 236.844939 101.481048 
L 252.844939 101.481048 
L 268.844939 101.481048 
" style="fill: none; stroke-dasharray: 7.4,3.2; stroke-dashoffset: 0; stroke: #2f9294; stroke-opacity: 0.9; stroke-width: 2"/>
    </g>
    <g id="text_12">
     <!-- Learning from scratch -->
     <g transform="translate(281.644939 107.081048) scale(0.16 -0.16)">
      <defs>
       <path id="CMR17-4c" d="M 3469 1615 
L 3354 1615 
C 3302 983 3219 166 2125 166 
L 1530 166 
C 1274 166 1261 197 1261 414 
L 1261 3898 
C 1261 4129 1274 4192 1760 4192 
L 1901 4192 
L 1901 4352 
C 1638 4352 1331 4352 1069 4352 
C 870 4352 512 4352 326 4352 
L 326 4192 
C 768 4192 838 4192 838 3905 
L 838 452 
C 838 166 768 166 326 166 
L 326 0 
L 3315 0 
L 3469 1615 
z
" transform="scale(0.015625)"/>
       <path id="CMR17-61" d="M 2304 1653 
C 2304 2072 2304 2294 2035 2543 
C 1798 2752 1523 2816 1306 2816 
C 800 2816 435 2407 435 1971 
C 435 1728 627 1728 666 1728 
C 749 1728 896 1778 896 1954 
C 896 2112 774 2181 666 2181 
C 640 2181 608 2174 589 2168 
C 723 2592 1069 2714 1293 2714 
C 1613 2714 1965 2429 1965 1885 
L 1965 1600 
C 1587 1600 1133 1549 774 1357 
C 371 1133 256 813 256 570 
C 256 77 832 -64 1171 -64 
C 1523 -64 1850 139 1990 511 
C 2003 233 2182 -18 2464 -18 
C 2598 -18 2938 70 2938 567 
L 2938 920 
L 2822 920 
L 2822 562 
C 2822 178 2650 128 2566 128 
C 2304 128 2304 458 2304 738 
L 2304 1653 
z
M 1965 870 
C 1965 317 1568 38 1216 38 
C 896 38 646 275 646 570 
C 646 761 730 1100 1101 1305 
C 1408 1478 1760 1504 1965 1504 
L 1965 870 
z
" transform="scale(0.015625)"/>
       <path id="CMR17-72" d="M 960 1497 
C 960 2112 1222 2688 1702 2688 
C 1747 2688 1792 2682 1837 2662 
C 1837 2662 1696 2617 1696 2452 
C 1696 2298 1818 2234 1914 2234 
C 1990 2234 2131 2279 2131 2458 
C 2131 2663 1926 2790 1709 2790 
C 1222 2790 1011 2317 947 2093 
L 941 2093 
L 941 2790 
L 198 2720 
L 198 2554 
C 576 2554 634 2515 634 2208 
L 634 428 
C 634 184 608 153 198 153 
L 198 -13 
C 352 0 646 0 813 0 
C 998 0 1325 0 1498 -13 
L 1498 153 
C 1037 153 960 153 960 440 
L 960 1497 
z
" transform="scale(0.015625)"/>
       <path id="CMR17-67" d="M 710 1164 
C 832 1068 1043 960 1299 960 
C 1805 960 2240 1357 2240 1888 
C 2240 2054 2189 2310 1997 2509 
C 2176 2692 2438 2752 2586 2752 
C 2611 2752 2650 2752 2682 2734 
C 2656 2728 2598 2703 2598 2605 
C 2598 2527 2656 2471 2739 2471 
C 2835 2471 2886 2533 2886 2614 
C 2886 2731 2790 2854 2586 2854 
C 2330 2854 2106 2738 1926 2580 
C 1734 2753 1504 2816 1299 2816 
C 794 2816 358 2419 358 1888 
C 358 1522 570 1292 634 1228 
C 442 1004 442 743 442 711 
C 442 545 506 302 723 168 
C 390 85 128 -169 128 -486 
C 128 -943 736 -1280 1466 -1280 
C 2170 -1280 2803 -956 2803 -479 
C 2803 384 1856 384 1363 384 
C 1216 384 954 384 922 391 
C 723 423 589 602 589 826 
C 589 883 589 1024 710 1164 
z
M 1299 1068 
C 736 1068 736 1760 736 1889 
C 736 2016 736 2708 1299 2708 
C 1862 2708 1862 2016 1862 1889 
C 1862 1760 1862 1068 1299 1068 
z
M 1466 -1171 
C 826 -1171 384 -835 384 -486 
C 384 -289 493 -105 634 -4 
C 794 104 858 104 1293 104 
C 1818 104 2547 104 2547 -486 
C 2547 -835 2106 -1171 1466 -1171 
z
" transform="scale(0.015625)"/>
       <path id="CMR17-66" d="M 979 2560 
L 1709 2560 
L 1709 2725 
L 966 2725 
L 966 3494 
C 966 4022 1235 4352 1510 4352 
C 1594 4352 1690 4327 1754 4282 
C 1702 4269 1568 4225 1568 4067 
C 1568 3901 1696 3850 1786 3850 
C 1875 3850 2003 3901 2003 4067 
C 2003 4308 1773 4454 1517 4454 
C 1152 4454 653 4156 653 3481 
L 653 2725 
L 141 2725 
L 141 2560 
L 653 2560 
L 653 427 
C 653 184 627 153 218 153 
L 218 -13 
C 371 0 666 0 832 0 
C 1018 0 1344 0 1517 -13 
L 1517 153 
C 1056 153 979 153 979 439 
L 979 2560 
z
" transform="scale(0.015625)"/>
       <path id="CMR17-6f" d="M 2758 1356 
C 2758 2176 2163 2816 1466 2816 
C 768 2816 173 2176 173 1356 
C 173 551 768 -64 1466 -64 
C 2163 -64 2758 551 2758 1356 
z
M 1466 51 
C 1165 51 909 230 762 480 
C 602 767 582 1126 582 1408 
C 582 1677 595 2010 762 2298 
C 890 2509 1139 2714 1466 2714 
C 1754 2714 1997 2554 2150 2330 
C 2349 2029 2349 1607 2349 1408 
C 2349 1158 2336 775 2163 467 
C 1984 173 1709 51 1466 51 
z
" transform="scale(0.015625)"/>
       <path id="CMR17-63" d="M 2234 2240 
C 2112 2240 1933 2240 1933 2017 
C 1933 1838 2080 1787 2163 1787 
C 2208 1787 2394 1807 2394 2024 
C 2394 2467 1958 2803 1466 2803 
C 787 2803 211 2178 211 1363 
C 211 516 813 -64 1466 -64 
C 2259 -64 2458 677 2458 748 
C 2458 774 2451 793 2406 793 
C 2362 793 2355 787 2330 703 
C 2163 180 1798 51 1523 51 
C 1114 51 621 427 621 1369 
C 621 2338 1094 2688 1472 2688 
C 1722 2688 2093 2573 2234 2240 
z
" transform="scale(0.015625)"/>
       <path id="CMR17-68" d="M 2656 1933 
C 2656 2259 2592 2790 1837 2790 
C 1312 2790 1056 2368 979 2157 
L 973 2157 
L 973 4396 
L 211 4326 
L 211 4160 
C 589 4160 646 4122 646 3817 
L 646 426 
C 646 184 621 153 211 153 
L 211 -13 
C 365 0 646 0 813 0 
C 979 0 1267 0 1421 -13 
L 1421 153 
C 1011 153 986 178 986 428 
L 986 1658 
C 986 2247 1344 2688 1792 2688 
C 2266 2688 2317 2266 2317 1958 
L 2317 428 
C 2317 184 2291 153 1882 153 
L 1882 -13 
C 2035 0 2317 0 2483 0 
C 2650 0 2938 0 3091 -13 
L 3091 153 
C 2682 153 2656 178 2656 428 
L 2656 1933 
z
" transform="scale(0.015625)"/>
      </defs>
      <use xlink:href="#CMR17-4c" transform="scale(0.996264)"/>
      <use xlink:href="#CMR17-65" transform="translate(57.381408 0) scale(0.996264)"/>
      <use xlink:href="#CMR17-61" transform="translate(97.867068 0) scale(0.996264)"/>
      <use xlink:href="#CMR17-72" transform="translate(143.557545 0) scale(0.996264)"/>
      <use xlink:href="#CMR17-6e" transform="translate(178.838313 0) scale(0.996264)"/>
      <use xlink:href="#CMR17-69" transform="translate(229.733683 0) scale(0.996264)"/>
      <use xlink:href="#CMR17-6e" transform="translate(254.604741 0) scale(0.996264)"/>
      <use xlink:href="#CMR17-67" transform="translate(305.500111 0) scale(0.996264)"/>
      <use xlink:href="#CMR17-66" transform="translate(381.266555 0) scale(0.996264)"/>
      <use xlink:href="#CMR17-72" transform="translate(408.740067 0) scale(0.996264)"/>
      <use xlink:href="#CMR17-6f" transform="translate(444.020835 0) scale(0.996264)"/>
      <use xlink:href="#CMR17-6d" transform="translate(489.711312 0) scale(0.996264)"/>
      <use xlink:href="#CMR17-73" transform="translate(596.706868 0) scale(0.996264)"/>
      <use xlink:href="#CMR17-63" transform="translate(632.508206 0) scale(0.996264)"/>
      <use xlink:href="#CMR17-72" transform="translate(672.993866 0) scale(0.996264)"/>
      <use xlink:href="#CMR17-61" transform="translate(708.274634 0) scale(0.996264)"/>
      <use xlink:href="#CMR17-74" transform="translate(753.965111 0) scale(0.996264)"/>
      <use xlink:href="#CMR17-63" transform="translate(789.245879 0) scale(0.996264)"/>
      <use xlink:href="#CMR17-68" transform="translate(827.129086 0) scale(0.996264)"/>
     </g>
    </g>
    <g id="line2d_21">
     <path d="M 236.844939 123.780524 
L 252.844939 123.780524 
L 268.844939 123.780524 
" style="fill: none; stroke: #ffa955; stroke-opacity: 0.9; stroke-width: 2; stroke-linecap: square"/>
    </g>
    <g id="text_13">
     <!-- Representation Transfer -->
     <g transform="translate(281.644939 129.380524) scale(0.16 -0.16)">
      <defs>
       <path id="CMR17-52" d="M 2509 2146 
C 3117 2268 3629 2676 3629 3186 
C 3629 3785 2950 4326 2054 4326 
L 333 4326 
L 333 4160 
C 774 4160 845 4160 845 3873 
L 845 415 
C 845 128 774 128 333 128 
L 333 -26 
C 518 -26 851 -26 1050 -26 
C 1248 -26 1581 -26 1766 -26 
L 1766 128 
C 1325 128 1254 128 1254 417 
L 1254 2112 
L 2003 2112 
C 2368 2112 2573 1964 2662 1881 
C 2918 1632 2918 1459 2918 1024 
C 2918 595 2918 377 3110 160 
C 3354 -102 3680 -128 3821 -128 
C 4294 -128 4365 396 4365 503 
C 4365 540 4365 585 4307 585 
C 4256 585 4250 547 4250 522 
C 4218 112 4032 -26 3834 -26 
C 3482 -26 3443 375 3405 764 
C 3386 898 3373 993 3360 1133 
C 3322 1452 3270 1917 2509 2146 
z
M 1984 2214 
L 1254 2214 
L 1254 3913 
C 1254 4129 1267 4160 1523 4160 
L 1990 4160 
C 2522 4160 3142 3977 3142 3190 
C 3142 2372 2464 2214 1984 2214 
z
" transform="scale(0.015625)"/>
       <path id="CMR17-70" d="M 1408 -1063 
C 998 -1063 973 -1037 973 -789 
L 973 402 
C 1158 134 1427 -38 1766 -38 
C 2406 -38 3053 523 3053 1388 
C 3053 2191 2496 2802 1837 2802 
C 1453 2802 1139 2592 960 2338 
L 960 2802 
L 198 2732 
L 198 2567 
C 576 2567 634 2528 634 2223 
L 634 -789 
C 634 -1031 608 -1063 198 -1063 
L 198 -1228 
C 352 -1216 634 -1216 800 -1216 
C 966 -1216 1254 -1216 1408 -1228 
L 1408 -1063 
z
M 973 2012 
C 973 2102 973 2235 1222 2471 
C 1254 2497 1472 2688 1792 2688 
C 2259 2688 2643 2108 2643 1382 
C 2643 656 2234 64 1728 64 
C 1498 64 1248 172 1056 472 
C 973 612 973 650 973 752 
L 973 2012 
z
" transform="scale(0.015625)"/>
       <path id="CMR17-54" d="M 3981 4326 
L 288 4326 
L 179 2918 
L 294 2918 
C 378 3976 467 4160 1453 4160 
C 1568 4160 1754 4160 1805 4154 
C 1926 4135 1926 4058 1926 3912 
L 1926 459 
C 1926 230 1907 160 1376 160 
L 1197 160 
L 1197 0 
C 1504 0 1824 0 2138 0 
C 2451 0 2771 0 3078 0 
L 3078 160 
L 2899 160 
C 2368 160 2349 230 2349 459 
L 2349 3912 
C 2349 4052 2349 4129 2464 4154 
C 2515 4160 2701 4160 2816 4160 
C 3795 4160 3891 3976 3974 2918 
L 4090 2918 
L 3981 4326 
z
" transform="scale(0.015625)"/>
      </defs>
      <use xlink:href="#CMR17-52" transform="scale(0.996264)"/>
      <use xlink:href="#CMR17-65" transform="translate(67.791102 0) scale(0.996264)"/>
      <use xlink:href="#CMR17-70" transform="translate(108.276762 0) scale(0.996264)"/>
      <use xlink:href="#CMR17-72" transform="translate(159.172132 0) scale(0.996264)"/>
      <use xlink:href="#CMR17-65" transform="translate(194.4529 0) scale(0.996264)"/>
      <use xlink:href="#CMR17-73" transform="translate(234.93856 0) scale(0.996264)"/>
      <use xlink:href="#CMR17-65" transform="translate(270.739898 0) scale(0.996264)"/>
      <use xlink:href="#CMR17-6e" transform="translate(311.225559 0) scale(0.996264)"/>
      <use xlink:href="#CMR17-74" transform="translate(359.518474 0) scale(0.996264)"/>
      <use xlink:href="#CMR17-61" transform="translate(394.799242 0) scale(0.996264)"/>
      <use xlink:href="#CMR17-74" transform="translate(440.489719 0) scale(0.996264)"/>
      <use xlink:href="#CMR17-69" transform="translate(475.770487 0) scale(0.996264)"/>
      <use xlink:href="#CMR17-6f" transform="translate(500.641546 0) scale(0.996264)"/>
      <use xlink:href="#CMR17-6e" transform="translate(546.332023 0) scale(0.996264)"/>
      <use xlink:href="#CMR17-54" transform="translate(627.303359 0) scale(0.996264)"/>
      <use xlink:href="#CMR17-72" transform="translate(686.005984 0) scale(0.996264)"/>
      <use xlink:href="#CMR17-61" transform="translate(721.286752 0) scale(0.996264)"/>
      <use xlink:href="#CMR17-6e" transform="translate(766.977229 0) scale(0.996264)"/>
      <use xlink:href="#CMR17-73" transform="translate(817.872599 0) scale(0.996264)"/>
      <use xlink:href="#CMR17-66" transform="translate(853.673936 0) scale(0.996264)"/>
      <use xlink:href="#CMR17-65" transform="translate(881.147449 0) scale(0.996264)"/>
      <use xlink:href="#CMR17-72" transform="translate(921.633109 0) scale(0.996264)"/>
     </g>
    </g>
   </g>
  </g>
  <g id="axes_3">
   <g id="patch_10">
    <path d="M 52.571048 257.76 
L 217.497156 257.76 
L 217.497156 146.88 
L 52.571048 146.88 
z
" style="fill: #ffffff"/>
   </g>
   <g id="line2d_22">
    <path d="M 55.539717 232.605239 
L 56.199422 233.075526 
L 56.859126 233.281325 
L 57.518831 233.271974 
L 58.178535 227.713978 
L 58.83824 227.616555 
L 59.497944 227.211047 
L 60.157649 227.330782 
L 60.817353 227.314326 
L 61.477057 228.148334 
L 62.136762 228.515259 
L 62.796466 229.118269 
L 63.456171 228.357153 
L 64.77558 227.902071 
L 65.435284 226.863445 
L 66.094988 226.886495 
L 68.074102 222.11114 
L 68.733806 221.538569 
L 69.393511 218.464463 
L 70.053215 217.128146 
L 70.712919 214.138759 
L 71.372624 213.412991 
L 72.032328 213.90247 
L 72.692033 213.121814 
L 73.351737 215.666381 
L 74.011442 216.465691 
L 74.671146 218.670095 
L 75.33085 226.537777 
L 75.990555 230.547942 
L 76.650259 232.388644 
L 77.309964 233.214622 
L 77.969668 233.760278 
L 78.629373 232.300324 
L 79.289077 234.214294 
L 79.948782 236.752272 
L 80.608486 239.946782 
L 81.26819 237.655235 
L 81.927895 229.899149 
L 82.587599 227.795739 
L 83.247304 228.341279 
L 83.907008 230.205089 
L 84.566713 230.171322 
L 85.226417 231.656231 
L 85.886121 230.652668 
L 86.545826 227.972146 
L 87.20553 226.456995 
L 87.865235 225.871039 
L 88.524939 226.272862 
L 89.184644 233.990277 
L 89.844348 233.530526 
L 90.504052 236.658101 
L 91.163757 238.094866 
L 91.823461 238.676546 
L 92.483166 237.478412 
L 93.14287 237.335604 
L 93.802575 239.412209 
L 94.462279 240.221355 
L 95.121983 240.573195 
L 95.781688 233.148078 
L 96.441392 238.008295 
L 97.101097 236.002745 
L 97.760801 237.578471 
L 98.420506 235.754622 
L 99.08021 236.511455 
L 99.739915 238.870797 
L 100.399619 236.43477 
L 102.378732 244.300727 
L 103.038437 241.04757 
L 103.698141 240.991561 
L 104.357846 240.270225 
L 105.01755 241.241087 
L 105.677254 241.076426 
L 106.336959 239.047445 
L 106.996663 238.922522 
L 107.656368 238.608211 
L 108.316072 235.983425 
L 108.975777 235.430189 
L 109.635481 235.806006 
L 110.295185 234.449858 
L 110.95489 233.712283 
L 111.614594 235.907063 
L 112.274299 237.4978 
L 112.934003 237.732968 
L 113.593708 239.496541 
L 114.253412 240.837921 
L 114.913117 237.992584 
L 115.572821 238.274512 
L 116.232525 237.927645 
L 116.89223 239.034325 
L 117.551934 238.201471 
L 118.211639 238.345871 
L 118.871343 236.014812 
L 119.531048 237.040251 
L 120.190752 236.925887 
L 120.850456 234.871697 
L 121.510161 238.765635 
L 122.169865 238.956361 
L 122.82957 239.476826 
L 123.489274 238.299607 
L 124.148979 234.916983 
L 124.808683 234.973775 
L 125.468387 236.91984 
L 126.128092 236.436583 
L 126.787796 234.793366 
L 127.447501 236.132896 
L 128.107205 236.096435 
L 128.76691 235.382069 
L 129.426614 234.417417 
L 130.086318 236.348252 
L 130.746023 241.123412 
L 131.405727 240.588591 
L 132.065432 241.723225 
L 132.725136 242.295424 
L 133.384841 240.290114 
L 134.044545 236.844024 
L 134.70425 237.650451 
L 135.363954 238.015494 
L 136.023658 238.688418 
L 136.683363 239.003707 
L 137.343067 239.792347 
L 138.002772 240.090314 
L 138.662476 239.6604 
L 139.322181 238.15151 
L 139.981885 242.202473 
L 140.641589 244.257485 
L 141.301294 244.393703 
L 141.960998 241.060198 
L 142.620703 241.233512 
L 143.280407 240.860545 
L 143.940112 237.433532 
L 144.599816 237.484809 
L 145.25952 237.067285 
L 145.919225 238.009538 
L 146.578929 236.708 
L 147.238634 237.546162 
L 147.898338 233.176684 
L 148.558043 235.36825 
L 149.217747 235.356049 
L 149.877451 234.995814 
L 150.537156 236.904753 
L 151.19686 236.28578 
L 151.856565 236.744159 
L 152.516269 233.328293 
L 153.175974 233.325963 
L 153.835678 232.785077 
L 154.495383 232.673992 
L 155.155087 232.787287 
L 155.814791 230.718439 
L 156.474496 229.636062 
L 157.1342 229.629761 
L 157.793905 229.02652 
L 158.453609 228.117599 
L 159.113314 230.595835 
L 159.773018 230.750505 
L 160.432722 231.215201 
L 161.092427 234.837711 
L 161.752131 235.409921 
L 162.411836 235.616788 
L 163.07154 236.723411 
L 163.731245 237.588592 
L 164.390949 237.938463 
L 165.050653 237.211869 
L 165.710358 237.749167 
L 166.370062 237.12533 
L 167.689471 236.632912 
L 168.349176 236.616009 
L 169.00888 235.745093 
L 169.668584 235.459261 
L 170.328289 234.432172 
L 170.987993 234.21857 
L 171.647698 235.199509 
L 172.307402 235.648199 
L 172.967107 235.737202 
L 173.626811 236.502457 
L 174.94622 235.83361 
L 175.605924 235.913032 
L 176.925333 236.500167 
L 177.585038 237.33666 
L 178.244742 237.2156 
L 178.904447 236.405578 
L 179.564151 236.612772 
L 180.223855 235.867662 
L 180.88356 237.025951 
L 181.543264 234.504295 
L 182.202969 236.572927 
L 182.862673 235.876174 
L 183.522378 235.446259 
L 184.182082 234.524066 
L 184.841786 234.33676 
L 185.501491 235.183461 
L 186.161195 235.832934 
L 186.8209 236.729029 
L 187.480604 234.862365 
L 188.140309 238.097899 
L 188.800013 235.780676 
L 189.459717 236.437803 
L 190.119422 235.882698 
L 190.779126 235.677537 
L 191.438831 234.927015 
L 192.098535 235.161017 
L 192.75824 234.732857 
L 193.417944 233.732831 
L 194.077649 234.512023 
L 194.737353 230.457673 
L 195.397057 232.842883 
L 196.056762 233.732056 
L 196.716466 234.824004 
L 197.376171 233.90733 
L 198.035875 234.529934 
L 198.69558 233.113469 
L 199.355284 230.433287 
L 200.014988 230.446345 
L 201.334397 231.747755 
L 202.653806 230.177628 
L 203.313511 231.136615 
L 203.973215 233.127466 
L 205.292624 235.097652 
L 205.952328 237.815857 
L 206.612033 238.068078 
L 207.271737 238.004419 
L 207.931442 241.530289 
L 208.591146 242.726539 
L 209.25085 242.667624 
L 209.910555 239.959719 
L 210.570259 239.89482 
L 211.229964 237.840921 
L 211.889668 233.614074 
L 212.549373 233.118109 
L 213.209077 232.784875 
L 213.868782 231.713825 
L 214.528486 232.239645 
L 215.847895 231.340431 
L 216.507599 234.29673 
L 217.167304 233.618865 
L 217.827008 234.045391 
L 217.827008 234.045391 
" clip-path="url(#pca17c9ec0b)" style="fill: none; stroke: #ffa955; stroke-opacity: 0.9; stroke-width: 2; stroke-linecap: square"/>
   </g>
   <g id="matplotlib.axis_5">
    <g id="xtick_6">
     <g id="line2d_23">
      <g>
       <use xlink:href="#m7e83566b54" x="52.571048" y="257.76" style="stroke: #000000; stroke-width: 0.8"/>
      </g>
     </g>
     <g id="text_14">
      <!-- $\mathdefault{0}$ -->
      <g transform="translate(48.669054 275.829588) scale(0.16 -0.16)">
       <use xlink:href="#CMR17-30" transform="scale(0.996264)"/>
      </g>
     </g>
    </g>
    <g id="xtick_7">
     <g id="line2d_24">
      <g>
       <use xlink:href="#m7e83566b54" x="118.541491" y="257.76" style="stroke: #000000; stroke-width: 0.8"/>
      </g>
     </g>
     <g id="text_15">
      <!-- $\mathdefault{1}$ -->
      <g transform="translate(114.639497 275.829588) scale(0.16 -0.16)">
       <use xlink:href="#CMR17-31" transform="scale(0.996264)"/>
      </g>
     </g>
    </g>
    <g id="xtick_8">
     <g id="line2d_25">
      <g>
       <use xlink:href="#m7e83566b54" x="184.511934" y="257.76" style="stroke: #000000; stroke-width: 0.8"/>
      </g>
     </g>
     <g id="text_16">
      <!-- $\mathdefault{2}$ -->
      <g transform="translate(180.609941 275.829588) scale(0.16 -0.16)">
       <use xlink:href="#CMR17-32" transform="scale(0.996264)"/>
      </g>
     </g>
    </g>
    <g id="text_17">
     <!-- Time [ns] -->
     <g transform="translate(102.907689 294.884233) scale(0.16 -0.16)">
      <defs>
       <path id="CMR17-5b" d="M 1504 -1600 
L 1504 -1377 
L 902 -1377 
L 902 4544 
L 1504 4544 
L 1504 4767 
L 678 4767 
L 678 -1600 
L 1504 -1600 
z
" transform="scale(0.015625)"/>
       <path id="CMR17-5d" d="M 915 4767 
L 90 4767 
L 90 4544 
L 691 4544 
L 691 -1377 
L 90 -1377 
L 90 -1600 
L 915 -1600 
L 915 4767 
z
" transform="scale(0.015625)"/>
      </defs>
      <use xlink:href="#CMR17-54" transform="scale(0.996264)"/>
      <use xlink:href="#CMR17-69" transform="translate(66.509881 0) scale(0.996264)"/>
      <use xlink:href="#CMR17-6d" transform="translate(91.380939 0) scale(0.996264)"/>
      <use xlink:href="#CMR17-65" transform="translate(168.300529 0) scale(0.996264)"/>
      <use xlink:href="#CMR17-5b" transform="translate(238.862156 0) scale(0.996264)"/>
      <use xlink:href="#CMR17-6e" transform="translate(263.733214 0) scale(0.996264)"/>
      <use xlink:href="#CMR17-73" transform="translate(314.628584 0) scale(0.996264)"/>
      <use xlink:href="#CMR17-5d" transform="translate(350.429922 0) scale(0.996264)"/>
     </g>
    </g>
   </g>
   <g id="matplotlib.axis_6">
    <g id="ytick_7">
     <g id="line2d_26">
      <g>
       <use xlink:href="#me64626f3e6" x="52.571048" y="233.12" style="stroke: #000000; stroke-width: 0.8"/>
      </g>
     </g>
     <g id="text_18">
      <!-- $\mathdefault{−1}$ -->
      <g transform="translate(25.369064 238.654794) scale(0.16 -0.16)">
       <use xlink:href="#CMSY10-0" transform="scale(0.996264)"/>
       <use xlink:href="#CMR17-31" transform="translate(77.487468 0) scale(0.996264)"/>
      </g>
     </g>
    </g>
    <g id="ytick_8">
     <g id="line2d_27">
      <g>
       <use xlink:href="#me64626f3e6" x="52.571048" y="202.32" style="stroke: #000000; stroke-width: 0.8"/>
      </g>
     </g>
     <g id="text_19">
      <!-- $\mathdefault{0}$ -->
      <g transform="translate(37.767061 207.854794) scale(0.16 -0.16)">
       <use xlink:href="#CMR17-30" transform="scale(0.996264)"/>
      </g>
     </g>
    </g>
    <g id="ytick_9">
     <g id="line2d_28">
      <g>
       <use xlink:href="#me64626f3e6" x="52.571048" y="171.52" style="stroke: #000000; stroke-width: 0.8"/>
      </g>
     </g>
     <g id="text_20">
      <!-- $\mathdefault{1}$ -->
      <g transform="translate(37.767061 177.054794) scale(0.16 -0.16)">
       <use xlink:href="#CMR17-31" transform="scale(0.996264)"/>
      </g>
     </g>
    </g>
    <g id="text_21">
     <!-- $\Psi_1$ -->
     <g transform="translate(18.269588 211.179302) rotate(-90) scale(0.16 -0.16)">
      <use xlink:href="#CMR17-9" transform="scale(0.996264)"/>
      <use xlink:href="#CMR17-31" transform="translate(71.714788 -14.943915) scale(0.697382)"/>
     </g>
    </g>
   </g>
   <g id="line2d_29">
    <path d="M 55.539717 231.748497 
L 79.289077 231.782936 
L 80.608486 230.46134 
L 85.886121 230.462797 
L 87.20553 231.773504 
L 95.781688 231.760355 
L 96.441392 231.348964 
L 97.101097 231.515561 
L 102.378732 234.664663 
L 103.038437 235.603675 
L 103.698141 235.925968 
L 105.677254 236.293801 
L 106.996663 235.973346 
L 108.975777 236.216185 
L 111.614594 236.161513 
L 112.274299 236.222306 
L 113.593708 236.59838 
L 114.253412 236.587292 
L 114.913117 235.138877 
L 118.211639 235.013035 
L 120.190752 234.873464 
L 120.850456 234.931653 
L 121.510161 236.331116 
L 123.489274 236.289006 
L 124.148979 235.246207 
L 125.468387 235.243033 
L 126.128092 235.218398 
L 127.447501 235.327969 
L 128.107205 235.395068 
L 129.426614 235.269847 
L 130.086318 235.276442 
L 130.746023 236.338871 
L 131.405727 236.308581 
L 132.725136 236.422827 
L 134.044545 236.064199 
L 134.70425 236.036028 
L 136.023658 236.140499 
L 139.981885 236.299486 
L 140.641589 236.471157 
L 145.919225 236.22788 
L 146.578929 235.828556 
L 147.898338 235.778843 
L 149.877451 235.984818 
L 151.19686 236.174087 
L 151.856565 236.181122 
L 152.516269 235.910701 
L 153.175974 236.274529 
L 153.835678 236.319225 
L 154.495383 235.769669 
L 155.814791 235.694747 
L 156.474496 235.391062 
L 158.453609 235.341306 
L 159.113314 235.607914 
L 160.432722 235.568271 
L 161.092427 236.166563 
L 162.411836 236.139997 
L 163.07154 236.480231 
L 164.390949 236.400837 
L 165.710358 236.275042 
L 167.029767 236.338264 
L 170.328289 236.358238 
L 172.307402 236.602734 
L 173.626811 236.584339 
L 174.286516 236.412831 
L 175.605924 236.492914 
L 177.585038 236.537807 
L 178.904447 236.284323 
L 180.223855 236.325871 
L 180.88356 236.483426 
L 182.202969 236.508416 
L 182.862673 236.296459 
L 184.182082 236.280291 
L 185.501491 236.548098 
L 188.140309 236.227202 
L 188.800013 235.934582 
L 189.459717 236.147484 
L 190.779126 236.093433 
L 192.098535 235.997963 
L 193.417944 236.046036 
L 194.077649 236.327775 
L 194.737353 236.308561 
L 195.397057 236.421881 
L 196.056762 235.758256 
L 197.376171 235.66243 
L 198.69558 235.753775 
L 199.355284 235.756919 
L 200.014988 235.561949 
L 201.994102 235.547731 
L 202.653806 236.214448 
L 207.931442 236.468432 
L 208.591146 236.643109 
L 209.25085 236.639189 
L 209.910555 236.389143 
L 211.229964 236.38235 
L 211.889668 236.141489 
L 215.847895 236.251292 
L 216.507599 236.367572 
L 217.827008 236.376472 
L 217.827008 236.376472 
" clip-path="url(#pca17c9ec0b)" style="fill: none; stroke-dasharray: 7.4,3.2; stroke-dashoffset: 0; stroke: #2f9294; stroke-opacity: 0.95; stroke-width: 2"/>
   </g>
   <g id="line2d_30">
    <path d="M 215.847895 258.8688 
L 219.146417 256.6512 
" style="fill: none; stroke: #000000; stroke-width: 1.5; stroke-linecap: square"/>
   </g>
   <g id="line2d_31">
    <path d="M 215.847895 147.9888 
L 219.146417 145.7712 
" style="fill: none; stroke: #000000; stroke-width: 1.5; stroke-linecap: square"/>
   </g>
   <g id="patch_11">
    <path d="M 52.571048 257.76 
L 52.571048 146.88 
" style="fill: none; stroke: #000000; stroke-width: 0.8; stroke-linejoin: miter; stroke-linecap: square"/>
   </g>
   <g id="patch_12">
    <path d="M 52.571048 257.76 
L 217.497156 257.76 
" style="fill: none; stroke: #000000; stroke-width: 0.8; stroke-linejoin: miter; stroke-linecap: square"/>
   </g>
   <g id="patch_13">
    <path d="M 52.571048 146.88 
L 217.497156 146.88 
" style="fill: none; stroke: #000000; stroke-width: 0.8; stroke-linejoin: miter; stroke-linecap: square"/>
   </g>
  </g>
  <g id="axes_4">
   <g id="patch_14">
    <path d="M 222.444939 257.76 
L 387.371048 257.76 
L 387.371048 146.88 
L 222.444939 146.88 
z
" style="fill: #ffffff"/>
   </g>
   <g id="line2d_32">
    <path d="M 222.20933 228.027057 
L 222.680548 228.343047 
L 223.151765 229.340868 
L 223.622983 229.093432 
L 224.565418 230.695633 
L 225.036635 228.976952 
L 226.450288 232.339094 
L 226.921505 238.936707 
L 227.392722 240.041529 
L 227.86394 236.607079 
L 228.335157 234.445123 
L 228.806375 229.794221 
L 229.277592 230.113282 
L 229.74881 231.197154 
L 230.220027 231.191646 
L 230.691245 227.293995 
L 231.162462 226.032965 
L 231.633679 225.374572 
L 232.104897 222.968676 
L 232.576114 224.919137 
L 233.518549 229.843512 
L 233.989767 226.324593 
L 234.932202 226.033113 
L 235.403419 229.771605 
L 236.345854 228.284262 
L 236.817071 230.239985 
L 237.288289 228.722265 
L 237.759506 228.965332 
L 238.230724 229.546897 
L 238.701941 232.059011 
L 239.173159 231.791089 
L 239.644376 231.136447 
L 240.115594 231.527718 
L 240.586811 233.555931 
L 241.058029 233.344209 
L 241.529246 232.654262 
L 242.000463 235.628405 
L 242.471681 234.313218 
L 242.942898 235.229652 
L 243.414116 234.570518 
L 244.356551 228.882296 
L 245.298986 230.220335 
L 245.770203 229.80452 
L 246.241421 231.041961 
L 246.712638 227.015392 
L 247.183855 227.94241 
L 247.655073 226.253916 
L 248.12629 226.094936 
L 248.597508 227.465814 
L 249.068725 231.511925 
L 249.539943 229.942413 
L 250.01116 227.953648 
L 250.482378 229.642582 
L 250.953595 223.170761 
L 251.424812 227.396231 
L 251.89603 226.932926 
L 252.838465 230.142087 
L 253.309682 230.884532 
L 253.7809 230.853241 
L 254.252117 224.997719 
L 254.723335 226.633402 
L 255.194552 224.680331 
L 255.66577 228.32592 
L 256.136987 228.466733 
L 256.608204 230.115962 
L 257.079422 230.130437 
L 257.550639 226.110356 
L 258.021857 226.340558 
L 258.493074 226.433302 
L 258.964292 233.307186 
L 259.435509 232.277926 
L 259.906727 232.150935 
L 260.377944 234.239676 
L 261.791596 230.690033 
L 262.262814 233.4512 
L 262.734031 232.4061 
L 263.205249 227.122037 
L 263.676466 225.538227 
L 264.147684 221.409401 
L 264.618901 221.952725 
L 265.090119 221.431667 
L 265.561336 220.023702 
L 266.032554 219.6958 
L 266.503771 219.669631 
L 266.974988 219.87653 
L 267.446206 221.467356 
L 267.917423 225.989432 
L 268.388641 226.880095 
L 268.859858 232.067882 
L 269.331076 234.076482 
L 270.273511 234.72996 
L 270.744728 234.721288 
L 271.215945 231.664713 
L 271.687163 232.39302 
L 272.15838 230.239016 
L 272.629598 231.002753 
L 273.100815 226.733039 
L 273.572033 225.626879 
L 274.04325 222.510001 
L 274.514468 222.714358 
L 274.985685 223.200242 
L 275.456903 224.176319 
L 275.92812 228.209465 
L 276.399337 228.362326 
L 276.870555 227.692175 
L 277.341772 225.819968 
L 277.81299 227.945301 
L 278.284207 227.590873 
L 278.755425 229.191793 
L 279.226642 226.060393 
L 279.69786 227.030331 
L 280.169077 227.661606 
L 281.111512 226.710588 
L 281.582729 229.463256 
L 282.996382 233.823231 
L 283.467599 231.84393 
L 283.938817 234.154852 
L 284.410034 233.529308 
L 284.881252 233.342847 
L 285.352469 232.108218 
L 286.294904 233.787593 
L 286.766121 232.740857 
L 287.708556 233.953909 
L 288.179774 236.415001 
L 288.650991 235.558241 
L 289.122209 235.668031 
L 289.593426 235.18996 
L 290.064644 236.545602 
L 291.007079 231.482511 
L 291.478296 233.655007 
L 291.949513 234.215042 
L 292.420731 227.736342 
L 292.891948 228.784384 
L 293.363166 230.67858 
L 293.834383 231.044587 
L 294.305601 230.033988 
L 294.776818 231.20787 
L 295.248036 231.857272 
L 295.719253 231.554029 
L 296.19047 229.366439 
L 296.661688 229.540094 
L 297.132905 235.525694 
L 297.604123 234.094795 
L 298.07534 234.628381 
L 298.546558 231.50834 
L 299.017775 232.767722 
L 299.488993 230.442659 
L 299.96021 226.07611 
L 300.431428 225.951773 
L 300.902645 220.918355 
L 301.373862 213.728104 
L 301.84508 214.305447 
L 302.316297 207.859367 
L 302.787515 199.794781 
L 303.258732 196.418101 
L 303.72995 189.152806 
L 304.201167 184.330258 
L 304.672385 182.66814 
L 305.143602 177.844129 
L 305.61482 176.904265 
L 306.086037 176.774362 
L 306.557254 168.986584 
L 307.028472 169.66307 
L 307.499689 169.986442 
L 307.970907 169.779661 
L 308.442124 176.461686 
L 308.913342 176.259592 
L 309.384559 176.40593 
L 309.855777 178.008649 
L 310.798212 178.956125 
L 311.269429 178.873283 
L 312.211864 178.103298 
L 312.683081 178.027389 
L 313.154299 171.195126 
L 313.625516 171.37291 
L 314.096734 171.082602 
L 314.567951 169.92414 
L 315.039169 170.241132 
L 315.510386 170.080397 
L 315.981603 170.178476 
L 316.452821 169.839643 
L 316.924038 170.026616 
L 317.395256 169.812709 
L 317.866473 170.325478 
L 318.337691 169.842065 
L 318.808908 169.918909 
L 319.280126 169.568081 
L 319.751343 169.51303 
L 320.222561 169.597911 
L 320.693778 169.397905 
L 321.164995 169.457033 
L 321.636213 169.131274 
L 322.10743 169.284115 
L 322.578648 168.873146 
L 323.049865 169.679596 
L 323.521083 169.676209 
L 323.9923 169.908104 
L 324.463518 169.165664 
L 325.405953 169.994455 
L 325.87717 170.109088 
L 326.348387 170.620903 
L 326.819605 170.414428 
L 327.290822 170.61484 
L 327.76204 170.372419 
L 328.233257 170.909023 
L 328.704475 170.357405 
L 329.175692 171.573017 
L 329.64691 170.585989 
L 330.118127 170.925588 
L 330.589345 170.912627 
L 331.060562 172.332297 
L 331.531779 171.640673 
L 332.002997 171.2715 
L 332.474214 170.448233 
L 332.945432 172.507928 
L 333.416649 172.954765 
L 333.887867 172.516405 
L 334.359084 173.490144 
L 334.830302 172.841585 
L 335.301519 172.676319 
L 335.772736 171.027209 
L 336.243954 172.230807 
L 336.715171 172.524723 
L 337.186389 173.392712 
L 337.657606 171.122531 
L 338.128824 171.493708 
L 338.600041 171.281127 
L 339.071259 172.088419 
L 339.542476 171.771884 
L 340.013694 171.759983 
L 340.484911 172.233972 
L 341.427346 171.540159 
L 341.898563 171.369798 
L 342.369781 171.421269 
L 342.840998 171.145338 
L 343.312216 171.188314 
L 343.783433 169.586358 
L 344.254651 169.937097 
L 345.197086 170.023797 
L 346.13952 169.719748 
L 347.081955 170.70738 
L 347.553173 170.580978 
L 348.02439 170.869911 
L 348.495608 171.348226 
L 348.966825 170.875171 
L 349.438043 171.468686 
L 349.90926 171.408136 
L 350.380478 171.866457 
L 350.851695 173.122443 
L 351.322912 172.51581 
L 351.79413 171.530915 
L 352.736565 171.086965 
L 353.207782 170.345587 
L 353.679 171.230141 
L 354.150217 171.041646 
L 354.621435 170.596229 
L 355.092652 170.725342 
L 355.563869 170.442312 
L 356.035087 170.403602 
L 356.506304 170.227913 
L 356.977522 170.573742 
L 357.448739 170.462869 
L 357.919957 171.419453 
L 358.391174 170.849871 
L 358.862392 170.900642 
L 359.333609 171.377759 
L 359.804827 171.35528 
L 360.276044 170.927633 
L 360.747261 171.162855 
L 361.218479 171.623162 
L 361.689696 170.900357 
L 362.160914 171.117899 
L 362.632131 170.921605 
L 363.103349 170.998673 
L 363.574566 170.549177 
L 364.045784 172.639875 
L 365.459436 172.677565 
L 365.930653 173.300571 
L 366.401871 173.47114 
L 366.873088 173.153928 
L 367.815523 173.432934 
L 368.286741 172.675049 
L 368.757958 170.350809 
L 369.229176 169.608174 
L 369.700393 169.854265 
L 370.171611 169.79942 
L 370.642828 169.134873 
L 371.114045 169.961448 
L 371.585263 171.625682 
L 372.05648 171.432641 
L 372.527698 171.689636 
L 372.998915 172.846357 
L 373.470133 172.748457 
L 373.94135 173.552972 
L 374.412568 172.877693 
L 374.883785 174.362595 
L 375.355002 174.946169 
L 375.82622 174.3878 
L 376.297437 172.843793 
L 376.768655 173.192846 
L 377.71109 173.210963 
L 378.182307 173.123847 
L 378.653525 172.503961 
L 379.124742 172.621612 
L 380.067177 169.868413 
L 380.538394 170.145471 
L 381.009612 170.157865 
L 381.480829 169.95402 
L 381.952047 170.025858 
L 382.423264 169.967809 
L 382.894482 175.236166 
L 383.365699 174.40933 
L 383.836917 174.102612 
L 384.308134 174.317149 
L 384.779352 175.504026 
L 384.779352 175.504026 
" clip-path="url(#pe6b04e66be)" style="fill: none; stroke: #ffa955; stroke-opacity: 0.9; stroke-width: 2; stroke-linecap: square"/>
   </g>
   <g id="matplotlib.axis_7">
    <g id="xtick_9">
     <g id="line2d_33">
      <g>
       <use xlink:href="#m7e83566b54" x="246.005812" y="257.76" style="stroke: #000000; stroke-width: 0.8"/>
      </g>
     </g>
     <g id="text_22">
      <!-- $\mathdefault{24}$ -->
      <g transform="translate(238.201825 275.829588) scale(0.16 -0.16)">
       <use xlink:href="#CMR17-32" transform="scale(0.996264)"/>
       <use xlink:href="#CMR17-34" transform="translate(45.690477 0) scale(0.996264)"/>
      </g>
     </g>
    </g>
    <g id="xtick_10">
     <g id="line2d_34">
      <g>
       <use xlink:href="#m7e83566b54" x="340.249302" y="257.76" style="stroke: #000000; stroke-width: 0.8"/>
      </g>
     </g>
     <g id="text_23">
      <!-- $\mathdefault{26}$ -->
      <g transform="translate(332.445315 275.829588) scale(0.16 -0.16)">
       <use xlink:href="#CMR17-32" transform="scale(0.996264)"/>
       <use xlink:href="#CMR17-36" transform="translate(45.690477 0) scale(0.996264)"/>
      </g>
     </g>
    </g>
    <g id="text_24">
     <!-- Time [ns] -->
     <g transform="translate(272.78158 294.884233) scale(0.16 -0.16)">
      <use xlink:href="#CMR17-54" transform="scale(0.996264)"/>
      <use xlink:href="#CMR17-69" transform="translate(66.509881 0) scale(0.996264)"/>
      <use xlink:href="#CMR17-6d" transform="translate(91.380939 0) scale(0.996264)"/>
      <use xlink:href="#CMR17-65" transform="translate(168.300529 0) scale(0.996264)"/>
      <use xlink:href="#CMR17-5b" transform="translate(238.862156 0) scale(0.996264)"/>
      <use xlink:href="#CMR17-6e" transform="translate(263.733214 0) scale(0.996264)"/>
      <use xlink:href="#CMR17-73" transform="translate(314.628584 0) scale(0.996264)"/>
      <use xlink:href="#CMR17-5d" transform="translate(350.429922 0) scale(0.996264)"/>
     </g>
    </g>
   </g>
   <g id="matplotlib.axis_8">
    <g id="ytick_10"/>
    <g id="ytick_11"/>
    <g id="ytick_12"/>
   </g>
   <g id="line2d_35">
    <path d="M 222.20933 235.40397 
L 222.680548 235.505522 
L 223.151765 235.165719 
L 224.0942 235.455504 
L 224.565418 234.987365 
L 225.036635 234.94508 
L 225.507853 234.316107 
L 225.97907 234.407121 
L 226.450288 234.286057 
L 227.86394 233.604542 
L 228.335157 233.070982 
L 228.806375 232.762628 
L 229.277592 233.148312 
L 229.74881 233.252165 
L 230.220027 233.830863 
L 230.691245 233.757576 
L 231.162462 233.520476 
L 231.633679 234.056171 
L 232.104897 234.367793 
L 233.047332 235.428377 
L 233.518549 235.742126 
L 234.932202 235.710167 
L 235.403419 235.526496 
L 235.874637 235.932587 
L 236.817071 235.948011 
L 237.288289 235.747844 
L 238.230724 235.657453 
L 238.701941 235.711322 
L 239.644376 235.421361 
L 240.115594 235.695216 
L 241.058029 235.439056 
L 241.529246 235.26799 
L 242.000463 235.462708 
L 242.471681 235.061367 
L 242.942898 235.227671 
L 243.885333 235.124175 
L 244.356551 234.806519 
L 244.827768 234.714727 
L 245.298986 234.470408 
L 246.241421 234.747629 
L 246.712638 230.968932 
L 247.183855 231.090044 
L 248.597508 230.635369 
L 249.068725 231.27328 
L 249.539943 231.44949 
L 250.482378 231.042839 
L 250.953595 230.615933 
L 251.424812 234.39314 
L 252.367247 234.863615 
L 253.309682 235.244238 
L 253.7809 235.029487 
L 254.252117 234.461839 
L 254.723335 235.061243 
L 255.194552 233.943893 
L 255.66577 234.108587 
L 256.136987 234.098115 
L 256.608204 233.949372 
L 257.079422 233.945873 
L 257.550639 233.498926 
L 258.493074 233.61524 
L 258.964292 234.207756 
L 259.435509 233.897789 
L 259.906727 235.289687 
L 260.377944 235.567773 
L 260.849162 235.591507 
L 261.320379 235.727982 
L 261.791596 235.519236 
L 262.262814 235.983582 
L 263.205249 235.510127 
L 264.618901 235.473599 
L 265.090119 235.292181 
L 265.561336 235.232822 
L 266.032554 235.316063 
L 266.503771 235.524842 
L 266.974988 235.601538 
L 267.446206 235.881972 
L 267.917423 235.997464 
L 268.859858 235.96937 
L 269.331076 235.80936 
L 270.273511 235.984542 
L 270.744728 235.975265 
L 271.215945 235.655219 
L 271.687163 235.713334 
L 272.15838 235.335867 
L 273.100815 234.928794 
L 273.572033 235.131825 
L 274.04325 234.25155 
L 274.514468 234.279531 
L 275.456903 234.141045 
L 275.92812 234.394115 
L 276.870555 233.987858 
L 277.341772 234.054682 
L 278.284207 233.128733 
L 278.755425 234.25392 
L 279.226642 231.756035 
L 279.69786 231.84324 
L 280.169077 231.569024 
L 281.111512 231.506231 
L 282.053947 232.327238 
L 283.467599 231.813291 
L 283.938817 234.152522 
L 284.410034 233.987414 
L 284.881252 234.140087 
L 285.352469 233.644245 
L 285.823687 233.866679 
L 286.294904 233.935785 
L 286.766121 233.657244 
L 287.237339 234.512787 
L 288.179774 234.723298 
L 288.650991 234.284763 
L 289.122209 234.286432 
L 290.064644 234.755819 
L 290.535861 234.446009 
L 291.007079 232.946022 
L 291.478296 233.223335 
L 291.949513 233.168305 
L 292.420731 229.295894 
L 292.891948 229.443825 
L 293.363166 230.048358 
L 293.834383 230.068497 
L 294.305601 229.74659 
L 294.776818 230.086507 
L 295.248036 230.265423 
L 295.719253 231.589472 
L 296.19047 231.432856 
L 296.661688 231.040639 
L 297.132905 235.103233 
L 297.604123 235.138931 
L 298.546558 234.956037 
L 299.017775 235.211766 
L 299.488993 235.162691 
L 299.96021 229.927581 
L 300.431428 228.537657 
L 301.373862 216.251709 
L 301.84508 216.490884 
L 304.201167 183.614622 
L 304.672385 182.607718 
L 305.143602 177.423696 
L 305.61482 177.391175 
L 306.086037 177.204232 
L 306.557254 170.792675 
L 307.028472 170.48635 
L 307.970907 170.646889 
L 308.442124 177.298405 
L 308.913342 177.286826 
L 309.384559 177.074234 
L 309.855777 177.604171 
L 310.326994 177.402283 
L 311.269429 177.412246 
L 311.740646 177.619475 
L 312.211864 177.611722 
L 312.683081 177.419054 
L 313.154299 170.821082 
L 314.096734 170.844739 
L 314.567951 170.22744 
L 315.510386 170.15471 
L 315.981603 169.71995 
L 318.337691 169.538431 
L 319.280126 170.113719 
L 320.222561 170.389568 
L 320.693778 171.034878 
L 321.164995 170.922841 
L 322.10743 171.267787 
L 322.578648 171.178421 
L 323.049865 171.250579 
L 323.521083 170.857541 
L 323.9923 170.866932 
L 325.405953 170.261038 
L 325.87717 170.407338 
L 326.348387 170.209012 
L 328.704475 169.952556 
L 329.64691 170.39633 
L 330.589345 170.25942 
L 331.531779 170.283582 
L 332.002997 170.351379 
L 332.474214 170.260843 
L 332.945432 174.189355 
L 333.416649 174.342983 
L 334.359084 173.870136 
L 334.830302 173.913173 
L 335.301519 174.199871 
L 337.186389 174.810604 
L 337.657606 170.892946 
L 338.600041 170.881196 
L 339.071259 171.050919 
L 339.542476 171.100322 
L 340.013694 170.641131 
L 341.898563 170.03247 
L 342.369781 170.06561 
L 342.840998 169.972047 
L 343.312216 170.325858 
L 344.254651 170.138118 
L 345.197086 170.398314 
L 346.610738 170.53927 
L 347.081955 170.732151 
L 347.553173 170.798976 
L 348.02439 170.43867 
L 349.438043 170.359332 
L 349.90926 170.60917 
L 350.380478 170.409136 
L 351.322912 170.399726 
L 351.79413 170.136689 
L 352.736565 170.090328 
L 353.207782 170.325374 
L 354.150217 170.36195 
L 354.621435 170.295591 
L 355.563869 170.472694 
L 356.035087 170.454627 
L 356.977522 170.775046 
L 357.448739 170.844799 
L 358.391174 170.516289 
L 358.862392 170.651305 
L 359.333609 170.524419 
L 360.276044 170.681934 
L 362.160914 170.356162 
L 362.632131 170.19279 
L 363.103349 170.207895 
L 363.574566 170.357397 
L 364.045784 173.443616 
L 364.517001 173.286114 
L 364.988219 173.279714 
L 365.459436 173.384618 
L 366.401871 173.387781 
L 367.344306 173.46386 
L 368.286741 173.880385 
L 368.757958 170.834684 
L 369.229176 170.929828 
L 370.171611 170.758438 
L 371.114045 170.479457 
L 372.05648 170.811345 
L 372.527698 170.577396 
L 372.998915 170.112156 
L 373.470133 170.083536 
L 373.94135 170.662835 
L 374.412568 170.611079 
L 375.355002 171.256071 
L 375.82622 171.270594 
L 376.297437 171.163942 
L 376.768655 171.618913 
L 377.239872 171.538519 
L 377.71109 171.652944 
L 378.182307 171.577152 
L 378.653525 170.875294 
L 379.124742 170.915047 
L 380.067177 170.697436 
L 380.538394 170.984196 
L 381.009612 171.09552 
L 381.480829 170.461699 
L 381.952047 171.125447 
L 382.423264 171.075208 
L 382.894482 176.70843 
L 383.365699 176.925781 
L 384.779352 176.943761 
L 384.779352 176.943761 
" clip-path="url(#pe6b04e66be)" style="fill: none; stroke-dasharray: 7.4,3.2; stroke-dashoffset: 0; stroke: #2f9294; stroke-opacity: 0.95; stroke-width: 2"/>
   </g>
   <g id="line2d_36">
    <path d="M 220.795678 258.8688 
L 224.0942 256.6512 
" style="fill: none; stroke: #000000; stroke-width: 1.5; stroke-linecap: square"/>
   </g>
   <g id="line2d_37">
    <path d="M 220.795678 147.9888 
L 224.0942 145.7712 
" style="fill: none; stroke: #000000; stroke-width: 1.5; stroke-linecap: square"/>
   </g>
   <g id="patch_15">
    <path d="M 387.371048 257.76 
L 387.371048 146.88 
" style="fill: none; stroke: #000000; stroke-width: 0.8; stroke-linejoin: miter; stroke-linecap: square"/>
   </g>
   <g id="patch_16">
    <path d="M 222.444939 257.76 
L 387.371048 257.76 
" style="fill: none; stroke: #000000; stroke-width: 0.8; stroke-linejoin: miter; stroke-linecap: square"/>
   </g>
   <g id="patch_17">
    <path d="M 222.444939 146.88 
L 387.371048 146.88 
" style="fill: none; stroke: #000000; stroke-width: 0.8; stroke-linejoin: miter; stroke-linecap: square"/>
   </g>
  </g>
  <g id="text_25">
   <!-- Ligand binding -->
   <g transform="translate(156.537742 20.483515) scale(0.192 -0.192)">
    <defs>
     <path id="CMR17-64" d="M 1869 4326 
L 1869 4160 
C 2246 4160 2304 4122 2304 3820 
L 2304 2345 
C 2278 2377 2016 2790 1498 2790 
C 845 2790 211 2208 211 1364 
C 211 525 806 -64 1434 -64 
C 1978 -64 2259 337 2291 380 
L 2291 -63 
L 3066 -63 
L 3066 128 
C 2688 128 2630 166 2630 473 
L 2630 4396 
L 1869 4326 
z
M 2291 755 
C 2291 563 2176 390 2029 262 
C 1811 70 1594 38 1472 38 
C 1286 38 621 134 621 1356 
C 621 2612 1363 2688 1530 2688 
C 1824 2688 2061 2522 2208 2291 
C 2291 2157 2291 2138 2291 2023 
L 2291 755 
z
" transform="scale(0.015625)"/>
     <path id="CMR17-62" d="M 960 4396 
L 198 4326 
L 198 4160 
C 576 4160 634 4122 634 3817 
L 634 -13 
L 749 -13 
L 934 441 
C 1120 141 1395 -64 1766 -64 
C 2406 -64 3053 500 3053 1370 
C 3053 2188 2477 2790 1830 2790 
C 1434 2790 1152 2579 960 2330 
L 960 4396 
z
M 973 2004 
C 973 2118 973 2138 1062 2272 
C 1312 2657 1670 2688 1792 2688 
C 1984 2688 2643 2585 2643 1376 
C 2643 108 1888 38 1734 38 
C 1536 38 1248 114 1043 486 
C 973 608 973 621 973 735 
L 973 2004 
z
" transform="scale(0.015625)"/>
    </defs>
    <use xlink:href="#CMR17-4c" transform="scale(0.996264)"/>
    <use xlink:href="#CMR17-69" transform="translate(57.381408 0) scale(0.996264)"/>
    <use xlink:href="#CMR17-67" transform="translate(82.252466 0) scale(0.996264)"/>
    <use xlink:href="#CMR17-61" transform="translate(127.942943 0) scale(0.996264)"/>
    <use xlink:href="#CMR17-6e" transform="translate(173.633421 0) scale(0.996264)"/>
    <use xlink:href="#CMR17-64" transform="translate(224.52879 0) scale(0.996264)"/>
    <use xlink:href="#CMR17-62" transform="translate(305.500126 0) scale(0.996264)"/>
    <use xlink:href="#CMR17-69" transform="translate(356.395496 0) scale(0.996264)"/>
    <use xlink:href="#CMR17-6e" transform="translate(381.266555 0) scale(0.996264)"/>
    <use xlink:href="#CMR17-64" transform="translate(432.161925 0) scale(0.996264)"/>
    <use xlink:href="#CMR17-69" transform="translate(483.057294 0) scale(0.996264)"/>
    <use xlink:href="#CMR17-6e" transform="translate(507.928353 0) scale(0.996264)"/>
    <use xlink:href="#CMR17-67" transform="translate(558.823723 0) scale(0.996264)"/>
   </g>
  </g>
 </g>
 <defs>
  <clipPath id="p1f32e20301">
   <rect x="52.571048" y="36" width="164.926108" height="110.88"/>
  </clipPath>
  <clipPath id="pd15a4dbdc6">
   <rect x="222.444939" y="36" width="164.926108" height="110.88"/>
  </clipPath>
  <clipPath id="pca17c9ec0b">
   <rect x="52.571048" y="146.88" width="164.926108" height="110.88"/>
  </clipPath>
  <clipPath id="pe6b04e66be">
   <rect x="222.444939" y="146.88" width="164.926108" height="110.88"/>
  </clipPath>
 </defs>
</svg>
